<?xml version="1.0" encoding="utf-8"?>
<!-- Generator: Adobe Illustrator 15.1.0, SVG Export Plug-In . SVG Version: 6.00 Build 0)  -->
<svg version="1.2" baseProfile="tiny" id="Layer_1" xmlns="http://www.w3.org/2000/svg" xmlns:xlink="http://www.w3.org/1999/xlink"
	 x="0px" y="0px" width="318.792px" height="48.993px" viewBox="0 0 318.792 48.993" xml:space="preserve">
<g>
	<g>
		<path fill="#FFFFFF" d="M16.652,4.027c1.062,0,1.652,0.59,1.888,1.593l4.189,17.171c0.118,0.59,0.59,0.59,0.708,0l4.189-17.171
			c0.236-1.003,0.826-1.593,1.888-1.593H41.73c1.18,0,1.77,0.59,1.77,1.771v37.764c0,1.121-0.59,1.77-1.77,1.77h-6.609
			c-1.121,0-1.77-0.649-1.77-1.77V20.313c0-0.413-0.531-0.472-0.649-0.059l-5.724,23.543c-0.236,1.003-0.885,1.534-1.947,1.534
			h-3.895c-1.062,0-1.711-0.531-1.947-1.534l-5.723-23.543c-0.118-0.413-0.649-0.354-0.649,0.059v23.249
			c0,1.121-0.59,1.77-1.77,1.77H4.438c-1.18,0-1.771-0.649-1.771-1.77V5.798c0-1.18,0.59-1.771,1.771-1.771H16.652z"/>
		<path fill="#FFFFFF" d="M71.995,4.027c1.18,0,1.77,0.59,1.77,1.771v6.608c0,1.121-0.59,1.77-1.77,1.77H57.716
			c-1.121,0-1.771,0.59-1.771,1.771v1.888c0,1.121,0.649,1.77,1.771,1.77h9.146c1.18,0,1.771,0.59,1.771,1.77v6.609
			c0,1.121-0.59,1.77-1.771,1.77h-9.146c-1.121,0-1.771,0.59-1.771,1.771v1.888c0,1.121,0.649,1.77,1.771,1.77h14.279
			c1.18,0,1.77,0.59,1.77,1.77v6.609c0,1.18-0.59,1.77-1.77,1.77H47.213c-1.122,0-1.771-0.649-1.771-1.77V5.798
			c0-1.18,0.649-1.771,1.771-1.771H71.995z"/>
		<path fill="#FFFFFF" d="M89.693,4.027c1.062,0,1.652,0.59,1.888,1.593l4.189,17.171c0.118,0.59,0.59,0.59,0.708,0l4.189-17.171
			c0.236-1.003,0.826-1.593,1.888-1.593h12.214c1.18,0,1.77,0.59,1.77,1.771v37.764c0,1.121-0.59,1.77-1.77,1.77h-6.609
			c-1.121,0-1.77-0.649-1.77-1.77V20.313c0-0.413-0.531-0.472-0.649-0.059l-5.724,23.543c-0.236,1.003-0.885,1.534-1.947,1.534
			h-3.895c-1.062,0-1.711-0.531-1.947-1.534l-5.723-23.543c-0.118-0.413-0.649-0.354-0.649,0.059v23.249
			c0,1.121-0.59,1.77-1.77,1.77h-6.608c-1.18,0-1.771-0.649-1.771-1.77V5.798c0-1.18,0.59-1.771,1.771-1.771H89.693z"/>
		<path fill="#FFFFFF" d="M145.449,4.027c1.18,0,1.77,0.59,1.77,1.771v6.608c0,1.121-0.59,1.77-1.77,1.77H131.17
			c-1.121,0-1.771,0.59-1.771,1.771v1.888c0,1.121,0.649,1.77,1.771,1.77h9.146c1.18,0,1.771,0.59,1.771,1.77v6.609
			c0,1.121-0.59,1.77-1.771,1.77h-9.146c-1.121,0-1.771,0.59-1.771,1.771v1.888c0,1.121,0.649,1.77,1.771,1.77h14.279
			c1.18,0,1.77,0.59,1.77,1.77v6.609c0,1.18-0.59,1.77-1.77,1.77h-24.782c-1.122,0-1.771-0.649-1.771-1.77V5.798
			c0-1.18,0.649-1.771,1.771-1.771H145.449z"/>
		<path fill="#FFFFFF" d="M148.573,17.304c0-3.894,0.826-14.338,14.811-14.338c12.568,0,14.515,8.438,14.751,12.981
			c0.059,0.826-0.473,1.475-1.298,1.652l-6.55,1.476c-1.239,0.236-2.183-0.59-2.36-1.83c-0.295-2.596-1.357-4.13-4.543-4.13
			c-4.367,0-4.662,2.773-4.662,7.317v8.497c0,4.543,0.295,7.317,4.662,7.317c3.245,0,4.13-1.534,4.484-4.249
			c0.177-1.239,1.121-2.006,2.301-1.711l6.667,1.475c0.826,0.177,1.357,0.826,1.298,1.711c-0.236,4.485-2.184,12.922-14.751,12.922
			c-13.984,0-14.811-10.444-14.811-14.338V17.304z"/>
		<path fill="#FFFFFF" d="M208.225,43.325c0,1.298-0.59,2.006-1.77,2.006h-6.609c-1.121,0-1.77-0.59-1.77-1.77v-5.134
			c0-1.18-0.591-1.77-1.771-1.77h-5.074c-1.121,0-1.771,0.59-1.771,1.77v5.134c0,1.18-0.59,1.77-1.771,1.77h-6.608
			c-1.121,0-1.771-0.708-1.771-2.006V18.307c0-7.435,1.181-15.342,14.457-15.342s14.456,7.907,14.456,15.342V43.325z
			 M198.076,18.307c0-2.833-0.413-4.249-4.308-4.249s-4.308,1.416-4.308,4.249v6.432c0,1.121,0.649,1.77,1.771,1.77h5.074
			c1.18-0.059,1.771-0.649,1.771-1.829V18.307z"/>
		<path fill="#FFFFFF" d="M243.211,43.208c0.826,1.18,0.295,2.124-1.121,2.124h-8.851c-0.944,0-1.593-0.354-2.124-1.18
			l-7.317-11.211c-0.235-0.354-0.59-0.354-0.826,0l-2.419,3.304c-0.177,0.236-0.236,0.472-0.236,0.767v6.55
			c0,1.121-0.59,1.77-1.77,1.77h-6.727c-1.121,0-1.771-0.649-1.771-1.77V5.798c0-1.18,0.649-1.771,1.771-1.771h6.727
			c1.18,0,1.77,0.59,1.77,1.771v11.86c0,0.59,0.413,0.708,0.709,0.236l9.264-12.746c0.531-0.767,1.18-1.121,2.124-1.121h8.732
			c1.476,0,1.947,0.944,1.121,2.184l-11.919,16.403c-0.177,0.295-0.235,0.531,0,0.826L243.211,43.208z"/>
		<path fill="#00FF00" d="M253.634,33.637c1.359,0,2.04,0.68,2.04,2.04v7.615c0,1.292-0.681,2.04-2.04,2.04h-7.615
			c-1.292,0-2.04-0.748-2.04-2.04v-7.615c0-1.359,0.748-2.04,2.04-2.04H253.634z"/>
		<path fill="#FFFFFF" d="M283.886,4.027c1.18,0,1.771,0.59,1.771,1.771v6.608c0,1.121-0.591,1.77-1.771,1.77h-14.279
			c-1.121,0-1.771,0.59-1.771,1.771v1.888c0,1.121,0.649,1.77,1.771,1.77h9.146c1.181,0,1.771,0.59,1.771,1.77v6.609
			c0,1.121-0.59,1.77-1.771,1.77h-9.146c-1.121,0-1.771,0.59-1.771,1.771v1.888c0,1.121,0.649,1.77,1.771,1.77h14.279
			c1.18,0,1.771,0.59,1.771,1.77v6.609c0,1.18-0.591,1.77-1.771,1.77h-24.782c-1.121,0-1.771-0.649-1.771-1.77V5.798
			c0-1.18,0.649-1.771,1.771-1.771H283.886z"/>
		<path fill="#FFFFFF" d="M308.311,18.661c-1.18,0.236-1.77-0.295-1.947-1.475c-0.413-2.419-2.359-3.954-5.133-3.954
			c-2.302,0-3.718,1.357-3.481,2.714c0.826,4.603,19.472,4.484,19.472,18.056c0,1.77-2.006,12.214-15.99,12.214
			c-12.392,0-15.047-8.143-15.342-12.746c-0.059-1.062,0.472-1.711,1.534-1.947l6.668-1.476c1.18-0.236,1.829,0.295,1.947,1.534
			c0.235,2.833,2.419,4.485,5.192,4.485c2.891,0,5.016-1.711,4.661-3.305c-1.121-5.015-18.882-3.894-18.882-17.465
			c-0.059-1.771,1.003-12.214,14.221-12.214c12.155,0,14.987,7.907,15.341,12.155c0.06,1.062-0.472,1.711-1.534,1.947
			L308.311,18.661z"/>
	</g>
</g>
</svg>
